<svg xmlns="http://www.w3.org/2000/svg" xml:space="preserve" width="2000" height="553" data-id="lg_ncVlIl9ZHnyDZEzj4p" data-version="1"><g data-padding="20"><g transform="translate(10 10)scale(.96383)"><path fill="#ffdf39" d="M1029.563 352.915a7.965 7.965 0 0 1-7.552-5.428c-14.838-44.545-27.435-40.769-36.668-38.055q-3.835 1.18-7.139 2.448c-9.676 3.481-19.676 7.14-32.98-.944-8.645-5.28-13.129-16.284-12.302-23.452q.177-1.475.177-2.301-.708-.207-1.357-.295l-1.918-.472a7.965 7.965 0 0 1-3.304-13.718q-1.8-.944-3.009-2.773a7.965 7.965 0 0 1 2.478-10.974c.531-.295 1.121-.796 1.18-1.091.118-1.269-1.18-3.717-2.773-5.841-7.965-.089-23.364-1.947-26.019-14.514-1.74-8.201 2.42-15.281 6.785-22.774q1.77-2.95 3.658-6.431l4.278-7.847c2.566-4.72 5.015-9.233 5.398-10.531-.03-.856-1.298-4.13-1.977-5.9-.825-2.124-1.622-4.13-2.005-6.195-2.124-10.532 14.248-43.247 14.425-43.572l.06-.177 1.415-2.714q.295-.531.68-1.003c17.285-30.149 59.943-40.946 94.37-40.946 59 0 95.58 40.002 95.58 104.342 0 10.442-2.214 20.767-6.609 30.65l-.354.915a177 177 0 0 1-8.673 16.195c-9.499 16.313-15.782 27.081-4.72 48.586a2941 2941 0 0 1 19.558 38.763 7.965 7.965 0 0 1-8.053 11.387c-.443-.059-44.693-4.867-78.883 13.688q-1.77.974-3.806.974m-35.99-60.711c17.258 0 29.707 12.98 40.563 41.713 24.19-10.62 50.298-12.39 65.903-12.183a2381 2381 0 0 0-13.364-26.344c-15.045-29.264-4.808-46.875 5.104-63.897 2.596-4.454 5.31-9.056 7.582-13.983l.088-.295a60.5 60.5 0 0 0 5.812-25.459c0-55.371-29.795-88.44-79.71-88.44-28.91 0-67.495 8.85-81.065 33.747l-.59.944-.325.62-.295.59-.413.738c-6.195 12.183-12.596 29.647-12.656 33.423l1.18 2.92c1.77 4.543 3.953 10.207 2.508 15.694-.885 3.186-2.86 6.815-6.785 14.072l-4.219 7.729q-2.006 3.747-3.953 6.992c-2.802 4.72-5.428 9.233-4.956 11.446 1.121 1.062 8.024 2.153 13.452 1.829a8.26 8.26 0 0 1 6.048 2.212c1.77 1.711 10.62 10.797 9.53 21.21a16.82 16.82 0 0 1-7.17 12.007c7.582 1.8 14.632 5.015 12.921 19.824-.059 1.475 1.711 6.195 4.78 8.054 6.784 4.13 10.708 2.684 19.322-.443q3.746-1.386 7.994-2.714 6.785-2.006 12.685-2.006"/><path fill="#ffdf39" d="M985.791 177.272a9.3 9.3 0 0 1-3.046-.359 7.98 7.98 0 0 1-4.509-3.192c-.558.213-1.117.24-1.649.253q-1.13 0-2.168-.373a8.11 8.11 0 0 1-5.546-6.21 10.6 10.6 0 0 1-.053-3.299 4 4 0 0 1-1.955-.652 4 4 0 0 1-.798-.798c-.013 1.197-.08 2.394-.08 3.551a12 12 0 0 0 .4 4.256q.318.958.97 1.65c.426.478.958.758 1.662 1.25 1.29.944 2.368 2.021 3.458 3.019 2.128 2.048 4.376 3.977 7.116 4.509 1.33.239 2.926.2 4.336.08 1.383-.134 2.86-.36 3.963-1.304q.093-1.516.32-3.059a2.7 2.7 0 0 1-.918.479q-.745.2-1.503.213m45.06-24.512a6.25 6.25 0 0 1-4.748-1.796 12 12 0 0 1-2.26-2.833c.012 1.277-.214 2.594-.799 3.817a7.05 7.05 0 0 1-3.365 3.259 8 8 0 0 1-3.192.758q-.266.944-.89 1.556 2.992-.585 5.93-1.33c3.206-.798 6.411-1.862 9.31-3.431m-10.333-31.016a12 12 0 0 0-3.405-.226c-1.117.106-2.248.333-3.112.851-.918.479-1.25 1.224-1.33 2.235-.133 1.955 1.596 3.75 3.325 5.293l2.713 2.38q.718.666 1.383 1.45a21.3 21.3 0 0 1 .585-6.025 12 12 0 0 1 2.355-4.827 5.85 5.85 0 0 0-2.527-1.13m53.4 28.833c.32-9.163-7.223-15.587-10.6-14.457 0 0-2.728-4.495-6.585-6.743-2.088-4.495-5.785-4.987-10.6-5.453-.638 0-3.205-3.857-9.96-4.03-5.135-3.857-10.907-5.133-21.36-.16-8.832-2.087-15.429 1.131-21.04 7.076-7.556-1.928-19.114 3.206-16.547 10.906-8.512 2.58-11.079 10.933-8.79 14.138 0 0-3.087.492-3.725 3.698-3.538.97-5.307 5.626-1.29 10.121-3.06 10.92 2.886 9.164 6.743 12.529 1.45 10.6 14.457 9.961 17.822 4.176-.466 5.453 4.03 13.007 13.991 13.007 8.951 0 17.663-4.535 27.265-8.379q.266.678.772 1.224l17.104 17.104a3.46 3.46 0 0 0 4.947 0 3.5 3.5 0 0 0 0-4.948l-7.34-7.342c12.102 2.182 26.04-5.466 25.35-16.133 3.217-.638 5.451-2.566 7.22-7.714 7.235-5.453 1.93-15.414-3.378-18.62M1057 140.83q.624-.465 1.37-.625a3.86 3.86 0 0 1 3.643 1.33c-1.33.213-2.394.213-3.338.386a5.1 5.1 0 0 0-1.676.572 25.3 25.3 0 0 1-2.474 10.28 23.94 23.94 0 0 1-6.317 8.526q1.21.266 2.128 1.117a4.66 4.66 0 0 1 1.237 4.655c-.892-1.41-1.53-2.527-2.448-3.405q-.665-.638-1.516-1.13l-.585-.293c-3.232 2.155-7.42 3.14-11.265 1.929a13.3 13.3 0 0 1-3.458 3.245 6.25 6.25 0 0 1-5.32.798 5.59 5.59 0 0 1-3.485-3.884 4.66 4.66 0 0 1 1.41-4.748 4.52 4.52 0 0 0-.904 4.589 5.05 5.05 0 0 0 3.271 3.139 5.19 5.19 0 0 0 4.35-.931 13.3 13.3 0 0 0 3.271-3.485l.333-.466.532.2c3.431 1.197 7.408.266 10.387-1.835a22.1 22.1 0 0 0 6.956-8.699c1.61-3.418 2.833-7.142 2.846-10.919 0-1.889-.372-3.764-1.197-5.48a11.04 11.04 0 0 0-3.817-4.216 10.64 10.64 0 0 1 4.376 3.91 12 12 0 0 1 1.69 5.454m-33.45 25.802a11.57 11.57 0 0 1-3.379 4.894 7.32 7.32 0 0 1-6.05 1.61 10.64 10.64 0 0 1-5.374-2.993 13.3 13.3 0 0 1-3.272-4.935 28 28 0 0 0 4.163 3.91 12 12 0 0 0 4.801 2.302 6.65 6.65 0 0 0 4.934-.998 20 20 0 0 0 4.176-3.804m7.581-39.74c-.146-.931-.505-2.075-1.569-2.328 1.144 0 1.835 1.21 2.128 2.195q.48 1.596.266 3.232-.133 1.37-.492 2.726 1.197-.997 2.62-1.689a10.24 10.24 0 0 1 6.743-.771 8.5 8.5 0 0 1 5.32 4.07 11.97 11.97 0 0 1 1.41 6.304c-.399-2.088-1.09-4.11-2.26-5.746a7.98 7.98 0 0 0-4.816-3.085 9.3 9.3 0 0 0-5.665.81c-1.783.825-3.325 2.142-4.629 3.685l-4.043 4.801 2.726-5.612c.878-1.81 1.73-3.671 2.102-5.64.173-.97.293-1.981.16-2.965m-59.066 23.753a10.6 10.6 0 0 1-.372-4.468 8.9 8.9 0 0 1 1.915-4.39 11.04 11.04 0 0 1 7.62-3.763c-.159-1.304-.132-2.66.4-3.977a7.18 7.18 0 0 1 3.365-3.63c1.423-.759 2.926-1.198 4.362-1.597 1.437-.399 2.966-.652 4.003-1.33l.546-.359.306.492c.412.639 1.117 1.064 1.941 1.197s1.73.027 2.58-.173a10.1 10.1 0 0 0 4.656-2.78 28 28 0 0 0-3.113 6.664c-.665 2.314-.824 4.708-.665 7.115.08 2.474.652 4.709 1.477 7.063.4 1.17.851 2.34 1.197 3.577.306 1.197.665 2.594.146 3.804.12-1.263-.386-2.394-.93-3.511l-1.663-3.352q-.838-1.729-1.37-3.617-.187-.692-.293-1.423a22.6 22.6 0 0 0-6.65.212 7.58 7.58 0 0 0-5.267 4.19c-1.157 2.128-1.822 4.655-3.178 6.982a8.8 8.8 0 0 1-2.714 3.006 7.3 7.3 0 0 1-3.79 1.09 7.98 7.98 0 0 0 5.307-4.734c1.01-2.234 1.582-4.748 2.846-7.169a9.3 9.3 0 0 1 2.66-3.205 8 8 0 0 1 3.897-1.503c2.394-.292 4.681.186 6.85.905q-.174-1.091-.267-2.195-.106-1.822.107-3.67a10.6 10.6 0 0 0-3.126-1.796c-1.263-.44-2.686-.266-4.455-.08a4.655 4.655 0 0 1 4.987-1.583c1.277.44 2.195 1.33 2.78 2.394q.266-1.503.824-2.94c.625-1.595 1.556-3.018 2.62-4.308q-1.197.97-2.646 1.556a6.65 6.65 0 0 1-2.926.465 4 4 0 0 1-2.394-1.09c-1.29.798-2.594 1.13-3.857 1.57-1.41.438-2.793.904-3.964 1.595-1.197.665-2.154 1.61-2.58 2.793a7.6 7.6 0 0 0-.2 3.937l.187 1.024h-1.038a10.37 10.37 0 0 0-7.54 3.059 8 8 0 0 0-1.93 3.67 12 12 0 0 0-.039 4.337l.04.2-.133.092c-1.064.732-2.394 1.064-3.604.891a5.28 5.28 0 0 0 3.085-1.237m20.921 17.197c-3.312 3.924-4.549 9.257-5.187 14.457q0-1.303.093-2.593c-.878 1.197-2.447 1.689-3.83 2.061-1.543.32-2.98.493-4.642.4-3.325-.267-5.972-2.501-8.126-4.523-1.104-1.037-2.142-2.101-3.259-2.965-.505-.4-1.29-.892-1.835-1.57a5.3 5.3 0 0 1-1.104-2.288c-.585-3.005.253-5.652.811-8.325a6.7 6.7 0 0 1-.77-1.29 9.3 9.3 0 0 1-.453-5.24c.093 1.728.44 3.43 1.276 4.827.4.705.931 1.304 1.557 1.65s1.33.398 1.995.186l.106-.027c-.066-1.037.067-1.955-.027-2.633-.026-.4-.133-.625-.425-1.024q-.492-.532-1.25-1.277c.665-.146 1.356-.16 2.021.16.692.279 1.33 1.13 1.383 1.928.067 1.077-.266 1.928-.784 2.66l-.133 1.037c-.333 2.448.093 4.975 1.69 6.664a6.65 6.65 0 0 0 2.885 1.902c1.037.359 2.42.505 3.1.133l.2-.12a28 28 0 0 0-2.263-5.16c-.505-.932-1.064-1.876-1.53-2.927a5.32 5.32 0 0 1-.465-3.444c.36 1.104 1.024 1.888 1.65 2.766q1.01 1.277 1.862 2.766c.532 1.011.997 2.115 1.183 3.272q.2 1.25-.026 2.487l.212-.12.306.785a6.65 6.65 0 0 0 3.87 3.538 12 12 0 0 0 2.74.745q.72.093 1.437.027c.332-.054.718-.094.997-.293.107-.705.173-1.41.32-2.115a21.3 21.3 0 0 1 3.112-6.969q-1.064.306-2.208.226a5.72 5.72 0 0 1-3.498-1.636 8 8 0 0 1-1.889-3.192q-.279-.85-.465-1.689c-.133-.558-.146-1.157-.612-1.503.692 0 1.024.745 1.397 1.157q.492.745.917 1.463c.585.945 1.157 1.836 1.876 2.527 1.197 1.264 2.926 1.756 4.947 2.009a16 16 0 0 1 5.187-4.31q-.425-.12-.824-.332a4 4 0 0 1-1.437-1.995c-.545-1.503-.572-3.006-.718-4.389a10.6 10.6 0 0 0-.798-3.844c-.545-1.09-1.729-1.822-3.152-2.274 1.396-.24 3.232.106 4.27 1.516 1.063 1.357 1.263 2.993 1.422 4.442.107 1.463.08 2.9.293 4.177.133.97.598 1.848 1.463 2.407l.505-.266a44 44 0 0 1 7.701-2.434c2.82-.612 5.626-1.13 8.432-1.69.4-.704.692-1.409.68-2.034 0-.904-.533-1.729-1.278-2.447a16 16 0 0 0-2.607-1.995q-1.45-.918-3.06-1.809a9.58 9.58 0 0 1 6.904 2.567c.798.798 1.516 2.035 1.423 3.351 2.18-.997 4.03-2.26 4.934-4.202.851-1.716 1.064-3.711 1.01-5.826a35.9 35.9 0 0 1-2.353-10.986q-.89-.798-1.929-1.45c-.997-.65-2.035-1.263-3.032-1.994q-.572-.4-1.104-.851c-.758.186-1.463.452-1.995.89a4.26 4.26 0 0 0-1.343 2.674c-.266 1.69.053 3.498.452 5.4q.252.784.332 1.596c-1.423-1.33-2.447-2.713-3.684-3.777a8 8 0 0 0-1.955-1.357 5.3 5.3 0 0 0-2.474-.572c.718-.665 1.836-.93 2.86-.745a5.3 5.3 0 0 1 2.726 1.357l.027.04q-.16-1.078-.013-2.221a4.79 4.79 0 0 1 2.327-3.525q.958-.505 1.955-.479-.479-.452-.93-.97a5.72 5.72 0 0 1-1.397-3.858c.053-.798.16-1.383.585-2.128.425-.704 1.05-1.157 1.662-1.502a8 8 0 0 1 3.87-.785 10.6 10.6 0 0 1 3.725.798c.904.412 1.808.997 2.394 1.809q.252-.333.532-.625a9.04 9.04 0 0 1 5.852-2.687c2.194-.133 4.296.399 6.197 1.224l.413.186v.439c.013 1.01.266 2.194.93 2.793 1.996.385 4.097.798 5.853 2.074a4.66 4.66 0 0 1 1.955 4.47c.28-.666.785-1.278 1.41-1.65 1.05-.665 2.26-.904 3.431-.97q1.782-.08 3.458.451a8 8 0 0 1 3.032 1.61 18.6 18.6 0 0 0-6.437-.905q-1.609.04-3.059.599a3.6 3.6 0 0 0-2.088 2.234c.133-1.037.107-2.101-.226-3.059a4 4 0 0 0-1.875-2.194c-1.73-.971-3.79-1.33-5.826-1.556l-.146-.027-.133-.093a4 4 0 0 1-1.224-1.782q-.252-.732-.332-1.49a13.3 13.3 0 0 0-5.2-.798 7.45 7.45 0 0 0-4.788 2.288c-2.514 2.713-3.339 6.783-3.246 10.613.213 3.91.705 7.9 1.995 11.598.68 1.835 1.596 3.604 2.887 5.054a5.85 5.85 0 0 0 4.601 2.061 22.6 22.6 0 0 0 4.35-3.112 22.6 22.6 0 0 1-6.212 4.988 42.6 42.6 0 0 1-7.42 3.032c-5.108 1.596-10.375 2.394-15.456 3.657-2.527.586-5.133 1.197-7.448 2.195a16.6 16.6 0 0 0-5.985 4.495m16.652 8.778a8.65 8.65 0 0 1-4.522 2.261q-.958.08-1.862-.066.346.691.466 1.45.172 1.343-.187 2.66a7.18 7.18 0 0 1-3.032 4.136c.4-1.73.97-3.139 1.357-4.602a18.6 18.6 0 0 0 .678-3.764 6.65 6.65 0 0 1-2.394-1.117 10.64 10.64 0 0 1-3.166-3.684c2.5 1.942 5.148 3.684 7.9 3.245 2.754-.372 5.188-2.42 7.675-4.376a13.3 13.3 0 0 1-2.913 3.857m59.837.373a8 8 0 0 1-1.117 2.5 6.92 6.92 0 0 1-4.51 2.953c-1.78.359-3.577.133-5.226-.4a9.3 9.3 0 0 1-3.857-2.234c-.572.719-1.357 1.13-2.062 1.503-.957.466-1.928.798-2.926 1.117q-2.939.892-5.945 1.463l-5.958 1.224c-1.942.492-4.017.798-5.72 1.915 1.624-1.263 3.698-1.729 5.627-2.314l5.878-1.556c1.97-.532 3.924-1.024 5.813-1.69q1.41-.478 2.726-1.143c.838-.452 1.663-1.05 1.915-1.716l.346-.917.705.771c1.955 2.155 5.52 3.059 8.38 2.5 3.018-.492 4.84-3.564 4.534-6.517-.266-2.899-3.032-5.266-5.905-5.586a5.05 5.05 0 0 0-3.95 1.064 7.05 7.05 0 0 0-2.075 3.79l-.492 2.142-1.064-1.942c-.718-1.343-2.647-2.154-4.429-2.473a11.97 11.97 0 0 0-10.494 3.045c-.85.719-2.14 1.13-3.205 1.064-1.064-.04-1.955-.066-2.886.093-1.862.32-3.644 1.184-5.347 2.142q-1.276.745-2.513 1.57l-1.237.85c-.4.32-1.197.572-1.782.266-.532-.266-.838-.492-1.264-.492q-.652-.013-1.317.293c-.877.386-1.689.957-2.473 1.543q-2.354 1.835-4.51 3.936 1.97-2.26 4.257-4.256a13.3 13.3 0 0 1 2.487-1.755c.466-.226.984-.426 1.57-.426.598-.026 1.157.306 1.53.466.637.332 1.382-.625 2.22-1.157q1.237-.878 2.527-1.69a17.3 17.3 0 0 1 5.626-2.473c1.037-.226 2.155-.213 3.1-.226.93 0 1.648-.266 2.326-.838a13.3 13.3 0 0 1 5.387-3.14 14.6 14.6 0 0 1 6.264-.385c1.556.306 3.245.798 4.562 1.969a8 8 0 0 1 2.128-3.206 6.65 6.65 0 0 1 5.054-1.503q.266-.731.718-1.33c.452-.665.971-1.183 1.33-1.755q.572-.851.838-1.862c.173-.678.213-1.423.293-2.221q.598 1.064.585 2.327c.026.838-.266 1.703-.745 2.394-.758 1.104-1.702 1.716-2.5 2.527 3.471.599 6.61 3.392 6.982 7.076.107.864 0 1.968-.213 2.7m.32-18.062q.438 2.155.532 4.403a42.6 42.6 0 0 1-3.325-8.113l-.173-.506a8 8 0 0 1-2.74-1.516 6.65 6.65 0 0 1-1.836-2.474q-.345.546-.638 1.157c-1.024 2.288-1.01 4.975-1.65 7.728a6.65 6.65 0 0 1-2.1 3.75c-1.144.931-2.528 1.344-3.87 1.49a8 8 0 0 0 3.298-2.075c.824-.944 1.183-2.155 1.37-3.418.332-2.54.212-5.413 1.356-8.153.532-1.33 1.463-2.607 2.487-3.564a9.3 9.3 0 0 0 2.368-2.873c1.13-2.168.106-4.895-1.41-7.116a10.6 10.6 0 0 1 2.553 3.272c.6 1.317.72 2.953.16 4.376a9.3 9.3 0 0 1-2.487 3.524q-.639.665-1.13 1.357 1.09 1.157 2.274 2.128l2.128 1.835.744-.066a4.26 4.26 0 0 0 3.06-1.822c.718-1.064 1.01-2.474.89-3.99a4.948 4.948 0 0 1-2.766 7.275q.546 1.689.905 3.378m6.703 9.044c.106-2.7-.28-5.094-1.09-7.448q-.6-1.756-1.464-3.391a12 12 0 0 0-2.274-3.06c1.33.32 2.514 1.224 3.378 2.288q1.33 1.623 2.022 3.604c.864 2.594.89 5.666-.572 7.994M1026.953-.175a16.275 16.275 0 1 0 0 32.55 16.275 16.275 0 1 0 0-32.55m-162.49 52.927a16.31 16.31 0 1 0 19.205 26.365 16.31 16.31 0 0 0-19.205-26.365m242.953-7.747a16.308 16.308 0 1 0 0-32.615 16.275 16.275 0 0 0 0 32.55m-160.992.13q2.604 0 5.143-.781a16.275 16.275 0 1 0-5.078.781M806.85 136.6a16.275 16.275 0 1 0 20.115-25.585A16.275 16.275 0 0 0 806.85 136.6m-22.395 43.877a16.275 16.275 0 1 0 10.481 20.572h-.065a16.275 16.275 0 0 0-10.416-20.572M1189.573 52.49a16.29 16.29 0 0 0-19.14 26.366v-.065a16.275 16.275 0 0 0 19.14-26.3m85.215 159.43q2.54 0 5.078-.78a16.295 16.295 0 0 0-10.09-30.989 16.275 16.275 0 0 0 5.012 31.77m-46.74-101.882a16.275 16.275 0 1 0 22.72 3.58v-.065a16.275 16.275 0 0 0-22.786-3.58m75.841 166.46c0-4.297-1.758-8.464-4.752-11.523a16.926 16.926 0 0 0-23.046 0 16.93 16.93 0 0 0-4.752 11.522c0 4.297 1.758 8.463 4.752 11.523 3.06 2.995 7.226 4.752 11.523 4.752s8.463-1.757 11.523-4.752c2.994-3.125 4.752-7.291 4.752-11.523m-133.194 197.45a16.275 16.275 0 0 0 9.634 29.425q5.078 0 9.57-3.06a16.275 16.275 0 0 0 3.58-22.785 16.275 16.275 0 0 0-22.784-3.58m119.718-111.907a16.275 16.275 0 0 0-10.48-20.507 16.275 16.275 0 1 0 10.48 20.442M826.25 442.96a16.277 16.277 0 1 0-19.139-26.333 16.277 16.277 0 0 0 19.14 26.333m281.557 97.52q2.474 0 5.013-.911a16.275 16.275 0 1 0-10.09-30.923 16.275 16.275 0 0 0 5.077 31.769m120.5-97.714a16.275 16.275 0 0 0 22.72-3.646 16.275 16.275 0 1 0-26.3-19.14 16.275 16.275 0 0 0 3.58 22.786M779.573 373.63q2.54 0 5.077-.782a16.275 16.275 0 0 0 10.416-20.571 16.275 16.275 0 0 0-20.506-10.416 16.275 16.275 0 0 0 5.013 31.769m81.57 104.16a16.275 16.275 0 1 0 26.3 19.009 16.275 16.275 0 1 0-26.3-19.074m80.66 62.039q2.473.65 5.012.716a16.275 16.275 0 1 0-5.013-.781m85.541-19.074a16.275 16.275 0 1 0 0 32.55 16.275 16.275 0 1 0 0-32.55m-276.87-244.124c0 4.296 1.758 8.463 4.752 11.522a16.47 16.47 0 0 0 23.046 0c2.994-3.06 4.752-7.226 4.752-11.522s-1.758-8.463-4.752-11.523a16.926 16.926 0 0 0-23.046 0c-2.994 2.994-4.752 7.16-4.752 11.522"/><path fill="#fff" d="M940.058 404.62h-2.035v12.864h2.496v.73h-12.48v-.73h2.496v-25.42h-2.496v-.73h11.597q4.992 0 7.091.512 2.086.525 2.931 1.254 1.843 1.498 1.843 4.762t-1.612 4.659q-1.613 1.408-4.916 1.677v.115q3.11.422 4.34 1.843 1.228 1.421 1.228 4.762v2.035q0 1.997.218 2.688.205.691.896.691t1.088-.64q.41-.627.755-2.662l.653.077q-.422 3.264-1.472 4.377-1.062 1.114-4.21 1.114t-4.48-1.485q-1.32-1.472-1.32-5.542v-2.804q0-2.15-.563-3.148-.55-.999-2.048-.999m-.768-12.557h-1.267v11.828h1.23q2.188 0 3.25-1.344 1.05-1.344 1.05-4.378v-1.114q0-3.033-1.012-4.019-1.024-.973-3.25-.973m29.875 25.767q1.882 0 2.394-.691.525-.692.525-2.343v-7.45h-2.458v-.844h11.06v.845h-1.498v10.828h-.576q-.69-.96-1.959-.96-.537 0-3.2.692-2.675.69-4.556.69-6.26 0-9.69-3.378-3.443-3.38-3.443-10.164 0-6.77 3.597-10.457 3.584-3.687 9.65-3.687 2.343 0 4.711.59 2.355.6 2.74.6.383 0 .575-.178.192-.167.423-.59h.422l.307 8.334h-.69q-1.882-3.725-3.777-5.863-1.907-2.125-4.25-2.125-5.875 0-5.875 11.482v3.034q0 5.76 1.447 8.69 1.433 2.945 4.121 2.945m22.426-7.795q0 3.532 1.203 5.414 1.216 1.882 4.365 1.882t4.838-1.959 1.69-5.952v-17.357h-2.496v-.73h5.606v.73h-2.112v17.088q0 4.762-2.112 7.104t-7.475 2.343q-5.35 0-8.179-2.227-2.816-2.228-2.816-7.642v-16.666h-2.112v-.73h12.096v.73h-2.496Zm23.54-17.856v-.845h19.967l.384 7.603h-.69q-1.614-3.878-3.38-5.325-1.767-1.433-5.184-1.433h-1.344v11.865h1.305q1.805 0 3.034-1.37 1.23-1.356 1.728-3.66h.576v11.366h-.653q-.69-2.88-1.869-4.109-1.164-1.228-3.2-1.228h-.92v12.326h1.458q3.533 0 6.003-2.112 2.483-2.112 3.405-5.414h.768l-.307 8.37h-21.082v-.844h2.266v-25.19Zm37.554-.5q-5.952 0-5.952 11.482v3.034q0 5.452 1.575 8.537 1.574 3.098 4.646 3.098 4.224 0 7.757-8.218h.691l-.269 8.563h-.422q-.23-.422-.422-.601-.192-.167-.564-.167-.358 0-2.777.59-2.42.6-4.915.6-6.26 0-9.703-3.378-3.43-3.38-3.43-10.164 0-6.77 3.584-10.457 3.597-3.687 9.664-3.687 2.342 0 4.582.59 2.253.6 2.637.6t.576-.178q.192-.167.422-.59h.423l.307 8.334h-.69q-1.729-3.879-3.56-5.94-1.817-2.048-4.16-2.048m11.943.384v-.73h11.98v.73h-2.227v11.904h7.642v-11.904h-2.266v-.73h12.02v.73h-2.266v25.421h2.266v.73h-12.02v-.73h2.266v-12.518h-7.642v12.518h2.228v.73h-11.98v-.73h2.264v-25.42Zm47.193 14.285v-2.841q0-7.028-.69-8.87-.769-2.113-2.19-2.612-.806-.307-1.958-.307t-1.984.307q-.82.307-1.357 1.075t-.87 1.613q-.32.845-.512 2.38-.23 2.228-.23 6.567v2.765q0 4.685.358 6.656.371 1.984.91 2.829 1.19 1.881 3.685 1.881 3.034 0 3.93-2.56.908-2.547.908-8.883m-4.915 12.25q-6.413 0-9.587-3.482-3.162-3.469-3.162-10.06 0-6.58 3.392-10.369 3.405-3.776 9.626-3.776 6.22 0 9.382 3.584 3.175 3.597 3.175 10.202t-3.213 10.253q-3.2 3.648-9.613 3.648"/><rect width="160" height="33.9" x="412.503" y="-110.891" fill="none" rx="0" ry="0" transform="translate(400.1 526.76)scale(1.28)"/><path fill="#ffdf39" d="M914.177 453.478q-.794 0-1.434-.282-.653-.281-.96-.704.448-1.485.691-3.238.23-1.741.23-3.456 0-2.138-.383-4.02-.397-1.868-1.204-3.02t-2.073-1.152q-.947 0-2.163.78l-.282-.115q.14-2.419 1.216-3.801 1.062-1.37 2.7-1.37 1.178 0 2.151.666.973.678 1.715 1.805.756 1.126 1.306 2.534.538 1.408.883 2.88.615-2.906 1.6-4.66.986-1.766 2.112-2.572 1.127-.794 2.176-.794 1.32 0 2.266 1.063.934 1.075.934 2.765 0 .921-.333 1.996-.819-.448-1.74-.448-1.216 0-2.432.717-1.204.717-2.202 2.023-.998 1.318-1.562 3.084.077 1.472.077 2.535 0 1.472-.166 2.752t-.615 2.995q-.537.538-1.203.794-.665.243-1.305.243m17.932.09q-2.112 0-3.494-.845-1.37-.845-2.035-2.24-.666-1.396-.666-2.97 0-1.498.55-2.982.551-1.498 1.613-2.714 1.05-1.229 2.573-1.971 1.523-.755 3.495-.755 2.112 0 3.468.857 1.37.858 2.036 2.266.652 1.408.652 3.02 0 1.46-.524 2.945-.538 1.472-1.6 2.7-1.05 1.23-2.573 1.959t-3.495.73m.768-2.394q.756 0 1.268-.794.5-.78.755-2.01.256-1.228.256-2.495 0-1.127-.218-2.125-.205-.999-.627-1.626-.422-.64-1.1-.64-.73 0-1.255.794-.525.78-.768 1.997-.256 1.216-.256 2.508 0 1.127.205 2.125.217.999.64 1.639.422.627 1.1.627m12.826 2.304q-1.267 0-2.125-1.037-.87-1.037-.87-2.79 0-.96.23-2.048.23-1.101.448-2.087.205-.73.333-1.37.115-.627.115-1.023 0-.512-.204-.73-.218-.23-.5-.23t-.563.179q-.28.192-.448.55l-.217-.077q0-1.164.563-1.97.563-.82 1.433-1.242t1.767-.423q.742 0 1.408.295.678.294 1.113.908.436.628.436 1.55 0 .562-.154 1.356t-.346 1.638q-.204.87-.384 1.754-.179.883-.179 1.562 0 .627.192 1.01.205.398.59.398.741 0 1.65-1.344.922-1.357 1.485-3.636.102-.448.192-.96t.09-1.036q0-.423-.064-.858-.052-.448-.167-.896v-.192q.448-.768 1.165-1.152.717-.397 1.46-.397.985 0 1.766.679.793.665.793 1.97 0 .756-.28 1.754-.283.999-.629 2.074-.332 1.037-.614 2.048-.282 1.024-.282 1.805 0 1.152.82 1.152.217 0 .55-.115.32-.128.602-.525l.192.051q0 1.011-.538 1.792-.55.768-1.395 1.19-.845.423-1.754.423-1.152 0-2.06-.845-.922-.845-.922-2.752v-.064q-1.152 1.971-2.394 2.816-1.24.845-2.304.845m20.928 0q-1.01 0-1.805-.82-.806-.831-.806-2.303 0-.73.192-1.677.205-.935.435-1.92.243-.986.435-1.869.205-.87.205-1.46 0-.473-.23-.767-.218-.307-.59-.307-.473 0-1.036.563l-.18-.103q-.025-.46.206-1.075.217-.614.73-1.19.511-.589 1.318-.973.82-.397 1.945-.397 1.267 0 1.907.883.628.884.628 2.125v.295q0 .153-.026.294.538-.87 1.254-1.69.717-.806 1.64-1.356.908-.55 1.983-.55 1.37 0 1.907.882.538.884.538 2.01 0 .23-.013.448-.013.205-.039.397.59-.87 1.306-1.728t1.651-1.434q.922-.576 2.138-.576 1.485 0 2.035.87.55.871.55 2.061 0 1.037-.256 2.381-.243 1.331-.499 2.624t-.256 2.202q0 .537.154.87.153.333.525.333.307 0 .576-.18.268-.178.384-.434l.217.09q0 1.036-.589 1.83-.588.78-1.497 1.216-.896.435-1.792.435-1.1 0-1.933-.73t-.832-2.419q0-1.037.27-2.253t.536-2.355q.27-1.14.27-1.869 0-1.037-.743-1.037-.525 0-1.05.436t-.934 1.152-.653 1.51q-.256.78-.256 1.51 0 .679.154 1.485.153.807.153 1.536 0 1.46-.819 2.253-.82.78-1.907.78-1.024 0-1.818-.665-.806-.678-.806-2.035 0-.614.166-1.498.167-.896.384-1.868.205-.973.384-1.87.167-.895.167-1.574 0-.537-.154-.844-.154-.308-.614-.308-.64 0-1.23.64-.6.653-1.023 1.562-.423.922-.563 1.766-.026.192-.039.308l-.013.115q0 .87.192 1.587.205.717.205 1.485 0 1.37-.832 2.291-.832.909-1.907.909m30.733.038q-.986 0-1.728-.653-.73-.652-.73-2.112v-.281q0-.141.026-.282-.845 1.69-1.895 2.496-1.062.794-2.124.794-.986 0-1.856-.679-.884-.69-1.408-2.048-.538-1.356-.538-3.264 0-1.97.55-3.52t1.447-2.624q.896-1.062 1.971-1.612t2.086-.55q1.127 0 2.023.69.91.692 1.241 2.176.09-.473.128-.87t.04-.538q.024-.755.78-1.126.742-.358 1.638-.358.794 0 1.498.307t.96 1.037l.05.166q-.332.768-.678 1.83-.332 1.076-.614 2.24-.282 1.178-.448 2.292-.166 1.1-.166 1.945 0 .935.192 1.293.192.346.473.346.487 0 .883-.679l.218.115q0 .96-.614 1.741-.628.794-1.55 1.255-.934.473-1.855.473m-4.595-3.584q.73 0 1.625-1.305.883-1.306 1.523-3.764.064-.256.116-.486.064-.243.09-.474-.449-1.036-.948-1.472-.486-.435-.973-.435-.704 0-1.305.743t-.986 1.868q-.384 1.127-.384 2.253 0 1.549.358 2.317.346.755.884.755m14.22 3.546q-.896 0-1.702-.397-.806-.41-1.293-1.293-.499-.87-.499-2.214 0-.743.14-1.92t.385-2.586l.486-2.816q-.563.026-1.075.103-.525.09-1.037.204l-.05-.204q.562-.666 1.177-1.152.627-.474 1.305-.781.36-1.869.615-3.226.256-1.37.256-1.625 0-.474.742-.781.742-.32 1.677-.32.82 0 1.536.32.717.307.973 1.037-.167.166-.487 1.254-.307 1.088-.64 2.637l1.101.051q.563.026 1.152.09.051.166.077.358.038.205.038.422 0 .423-.128.922-.128.486-.294.883-.679-.051-1.267-.128-.602-.064-1.165-.102-.218 1.216-.397 2.432-.192 1.203-.282 2.189-.102.985-.102 1.548 0 1.19.435 1.575.435.397 1.05.397.563 0 1.024-.218.448-.23.64-.538l.281.077q-.166 1.165-.896 2.023t-1.753 1.318q-1.01.46-2.023.46m9.96.001q-.91 0-1.703-.397-.807-.41-1.306-1.293-.486-.87-.486-2.214 0-.743.14-1.92t.384-2.586q.23-1.408.487-2.816-.563.026-1.088.103-.512.09-1.024.204l-.05-.204q.562-.666 1.176-1.152.615-.474 1.293-.781.371-1.869.627-3.226.243-1.37.243-1.625 0-.474.756-.781.742-.32 1.676-.32.807 0 1.536.32.717.307.96 1.037-.166.166-.473 1.254t-.653 2.637l1.1.051q.564.026 1.153.09.064.166.09.358.025.205.025.422 0 .423-.128.922-.128.486-.294.883-.679-.051-1.268-.128-.588-.064-1.152-.102-.23 1.216-.41 2.432-.178 1.203-.28 2.189-.103.985-.103 1.548 0 1.19.448 1.575.435.397 1.05.397.563 0 1.01-.218.45-.23.653-.538l.282.077q-.166 1.165-.909 2.023-.73.857-1.74 1.318-1.012.46-2.023.46m11.981.09q-2.06 0-3.405-.832-1.357-.832-2.035-2.188-.679-1.37-.679-2.944 0-1.498.59-3.008.575-1.498 1.69-2.74 1.1-1.241 2.7-1.996 1.587-.768 3.583-.768 2.484 0 3.623 1.113 1.14 1.114 1.14 2.688 0 1.357-.718 2.496t-1.907 1.83q-1.178.692-2.586.692-.73 0-1.497-.23-.755-.218-1.485-.705.14 1.754 1.011 2.535.87.793 2.087.793.844 0 1.69-.32.844-.332 1.56-.844.718-.525 1.114-1.114l.192.14q0 1.46-.6 2.484-.603 1.037-1.588 1.677-.986.653-2.164.947-1.164.294-2.316.294m.64-7.603q.908 0 1.472-.525.563-.512.844-1.216t.282-1.241q0-.653-.37-1.088-.36-.435-1.012-.435-.512 0-1.114.37-.602.36-1.088 1.255-.474.883-.614 2.458.896.422 1.6.422m11.264 7.527q-1.012 0-1.792-.82-.794-.831-.794-2.355 0-.73.166-1.664.167-.934.397-1.894.23-.973.397-1.83.166-.87.166-1.434 0-.589-.204-.934-.218-.359-.55-.359-.538 0-1.102.73l-.166-.103q-.038-.46.192-1.075t.704-1.19q.474-.589 1.23-.973.741-.397 1.752-.397 1.498 0 2.176.858.666.857.666 2.073 0 .192-.013.41-.013.205-.038.397 1.011-1.83 2.125-2.79 1.113-.973 2.073-.973.896 0 1.32.704t.421 1.69q0 .895-.346 1.83-.358.921-1.05 1.536-.69.601-1.676.576l-.102-.064q-.039-.73-.487-1.152-.448-.423-1.01-.423-.756 0-1.42.755-.667.768-.667 2.202 0 .87.204 1.882.192 1.024.192 1.728 0 .844-.396 1.548-.397.704-1.012 1.114-.614.397-1.356.397m9.19 4.147q-.23-.23-.37-.653.96-.64 1.266-1.357.307-.73.307-1.51 0-.845-.179-1.677t-.18-1.536q0-1.267.77-1.997.78-.73 2.072-.73 1.383 0 2.036.769.665.78.665 1.933 0 1.177-.717 2.56t-2.124 2.521q-1.408 1.14-3.546 1.677m9.856-4.16q-.883 0-1.549-.423-.678-.422-.678-1.408 0-1.548.665-3.148.653-1.6 1.626-3.162.973-1.574 1.946-3.06.972-1.497 1.638-2.84.653-1.358.653-2.51 0-.934-.448-.934-.307 0-.704.5-.397.486-.563 1.446l-.308-.052q0-1.612.756-2.726.768-1.114 1.945-1.677t2.42-.563q1.433 0 2.687.82t1.741 2.598q.192.704.295 1.574.09.87.128 1.51l.025.628q.051 2.278.103 3.852.038 1.588.153 2.65.103 1.075.307 1.805.192.704.525 1.139.32.435.82.435.486 0 .831-.281.36-.282.474-.538l.192.14q0 1.306-.512 2.254-.5.96-1.318 1.472-.82.499-1.716.499-.87 0-1.702-.512-.832-.525-1.46-1.626-.614-1.1-.806-2.841-.883-.052-1.702-.103-.832-.038-1.51-.038-.448 0-.858.013t-.806.038q-.256.883-.41 1.766t-.154 1.728q0 .653-.844 1.114t-1.882.46m4.224-7.68q.704-.205 1.485-.269.793-.077 1.69-.077h.627q-.064-2.073-.154-4.275-.102-2.202-.73-4.083-.217 2.022-1.126 4.25Zm16.077 7.68q-.768 0-1.485-.371-.717-.384-1.165-1.23-.448-.844-.448-2.162 0-1.19.32-2.778.32-1.587.73-3.315.41-1.715.717-3.341.32-1.638.281-2.906 0-1.216-.28-1.715l-.027-.09q.307-.895 1.1-1.407.794-.5 1.665-.5.985 0 1.753.743.781.742.781 2.496 0 .921-.23 2.201-.218 1.28-.538 2.74-.307 1.446-.627 2.854t-.55 2.586q-.23 1.19-.23 1.945 0 .794.23 1.088t.512.295q.307 0 .588-.244.282-.23.36-.435l.23.064q-.026 1.011-.577 1.792-.55.794-1.382 1.242t-1.728.448m9.37 0q-1.46 0-2.38-.858-.91-.857-.91-2.662 0-.896.217-1.895.205-.998.474-1.97t.46-1.767q.206-.781.206-1.267 0-.474-.205-.679-.192-.217-.474-.217t-.563.179q-.282.192-.486.55l-.218-.077q.051-1.164.64-1.97.602-.82 1.485-1.242t1.792-.423q.73 0 1.408.295.665.294 1.075.896.41.614.384 1.536-.026.627-.23 1.523-.192.896-.46 1.933-.27 1.024-.462 1.984-.205.96-.205 1.69 0 .614.192.985.18.358.627.358.487 0 1.268-.499.793-.512 1.574-1.472-.166-1.574-.166-2.778 0-3.097.921-4.48.91-1.382 2.291-1.382 1.012 0 1.383.678.358.679.358 1.805 0 1.651-.563 3.123-.563 1.46-1.318 2.33.05 1.267.524 1.971.461.704 1.114.704.64 0 1.331-.73t1.203-2.252q.5-1.523.59-3.853.025-1.894-.257-2.765v-.14q.397-.64 1.255-1.114.857-.461 1.728-.461.627 0 1.14.358.524.346.831 1.293.307.935.23 2.714-.09 2.483-.819 4.352-.73 1.869-1.869 3.136t-2.47 1.92q-1.319.64-2.61.64-1.473 0-2.677-.794-1.216-.806-1.83-2.265-1.267 1.318-2.61 2.188-1.332.87-2.92.87m29.35.038q-.986 0-1.715-.653-.743-.652-.743-2.112v-.281q0-.141.04-.282-.846 1.69-1.909 2.496-1.05.794-2.124.794-.986 0-1.856-.679-.87-.69-1.408-2.048-.538-1.356-.538-3.264 0-1.97.55-3.52t1.447-2.624q.91-1.062 1.971-1.612 1.075-.55 2.086-.55 1.127 0 2.023.69.91.692 1.241 2.176.09-.473.128-.87t.04-.538q.037-.755.78-1.126.742-.358 1.651-.358.78 0 1.485.307.704.307.96 1.037l.05.166q-.332.768-.665 1.83-.345 1.076-.627 2.24-.282 1.178-.448 2.292-.166 1.1-.166 1.945 0 .935.192 1.293.204.346.486.346.474 0 .87-.679l.218.115q0 .96-.614 1.741-.615.794-1.55 1.255-.934.473-1.855.473m-4.595-3.584q.73 0 1.625-1.305.883-1.306 1.536-3.764.051-.256.103-.486.064-.243.09-.474-.449-1.036-.948-1.472-.486-.435-.973-.435-.704 0-1.305.743t-.986 1.868q-.384 1.127-.384 2.253 0 1.549.358 2.317.346.755.884.755m16.065 9.077q-1.408 0-2.266-.857-.857-.87-.857-2.33 0-.755.268-1.677.27-.908.884-1.932-1.383-.077-2.266-.922t-.883-2.56q0-1.024.27-2.189.267-1.165.511-2.189.256-1.036.256-1.6 0-.422-.167-.601-.166-.18-.397-.18-.217 0-.486.18t-.41.55l-.486-.512q.18-.87.742-1.549.564-.678 1.37-1.062.82-.397 1.69-.397.985 0 1.728.627.73.64.73 2.304 0 1.037-.257 2.24-.256 1.19-.512 2.253-.243 1.05-.243 1.664 0 .563.23.832.244.269.55.269.398 0 .91-.435.5-.435.947-1.447.46-1.01.601-2.739.052-.525.077-1.357t.064-1.548q.026-.717.026-.896 0-1.012.742-1.421.743-.41 1.651-.41.781 0 1.485.32.704.307.96 1.037l.064.166q-.256.23-.435 1.524-.192 1.292-.448 3.468-.166 1.408-.422 3.175-.244 1.779-.679 3.571-.448 1.78-1.165 3.29t-1.779 2.419q-1.075.921-2.598.921m-.679-3.238q.884 0 1.562-1.6.691-1.587 1.088-4.518-1.805 2.316-2.47 3.635-.679 1.318-.679 1.92 0 .563.5.563m14.386-2.15q-1.753 0-2.905-.474t-1.715-1.229q-.564-.742-.564-1.497 0-1.076.96-1.908.948-.832 2.586-.832 0 1.434.371 2.304.36.858.935 1.216.576.372 1.113.372.653 0 1.088-.384t.435-.948q0-.78-.819-1.37-.819-.6-2.112-1.33-.64-.397-1.408-.91-.755-.524-1.293-1.266-.537-.756-.537-1.792 0-1.101.64-1.946.627-.845 1.677-1.42 1.036-.577 2.252-.871 1.204-.295 2.356-.295 2.176 0 3.276.87 1.088.871 1.088 1.857 0 .845-.844 1.523-.845.678-2.586.678.026-1.433-.589-2.099-.627-.665-1.33-.665-.5 0-.846.307-.333.32-.333.909 0 .678.436 1.164.435.5 1.1.87.666.385 1.37.718.947.46 1.792.96.845.512 1.382 1.152.538.652.538 1.587 0 1.267-1.024 2.342-1.037 1.088-2.752 1.754-1.715.653-3.738.653"/><rect width="193.696" height="24.86" x="395.655" y="-106.371" fill="none" rx="0" ry="0" transform="translate(400.1 564.366)scale(1.28)"/></g><path fill="transparent" stroke="transparent" d="M723.5 0h553v553h-553z"/></g></svg>